<?xml version="1.0" encoding="UTF-8"?>
<svg width="31px" height="31px" viewBox="0 0 31 31" version="1.1" xmlns="http://www.w3.org/2000/svg" xmlns:xlink="http://www.w3.org/1999/xlink">
    <!-- Generator: Sketch 59.1 (86144) - https://sketch.com -->
    <title>编组 10</title>
    <desc>Created with Sketch.</desc>
    <g id="新首页" stroke="none" stroke-width="1" fill="none" fill-rule="evenodd">
        <g id="平台首页底部栏状态" transform="translate(-169.000000, -222.000000)">
            <g id="编组-4备份" transform="translate(161.000000, 222.000000)">
                <g id="编组-9" transform="translate(8.000000, 0.000000)">
                    <g id="编组-20备份">
                        <g id="编组-19">
                            <g id="编组-10">
                                <circle id="椭圆形" fill="#00B36A" cx="15.5" cy="15.5" r="15.5"></circle>
                                <path d="M4.93,11.432 L4.93,20 L5.914,20 L5.914,16.004 L10.87,16.004 L10.87,20 L11.854,20 L11.854,11.432 L10.87,11.432 L10.87,15.152 L5.914,15.152 L5.914,11.432 L4.93,11.432 Z M16.45,11.264 C15.562,11.264 14.83,11.456 14.266,11.84 C13.63,12.248 13.318,12.836 13.318,13.58 C13.318,14.3 13.642,14.852 14.302,15.236 L14.4566072,15.3091907 C14.759584,15.4422449 15.2886873,15.629919 16.0384552,15.861289 L16.924375,16.1256875 C17.447375,16.2861875 17.8130417,16.4160208 18.0142639,16.5187431 L18.082,16.556 C18.646,16.856 18.934,17.276 18.934,17.816 C18.934,18.272 18.718,18.632 18.286,18.896 C17.854,19.16 17.278,19.292 16.582,19.292 C15.814,19.292 15.238,19.124 14.842,18.812 C14.41,18.464 14.146,17.912 14.062,17.168 L13.09,17.168 C13.162,18.224 13.534,19.004 14.206,19.52 C14.782,19.952 15.574,20.168 16.582,20.168 C17.602,20.168 18.406,19.952 19.006,19.532 C19.606,19.1 19.906,18.5 19.906,17.756 C19.906,16.976 19.546,16.376 18.838,15.944 C18.5333846,15.7612308 17.9538343,15.535503 17.0993491,15.2668166 L15.995731,14.9330248 C15.5132066,14.782281 15.1910909,14.6632727 15.034,14.576 C14.542,14.312 14.302,13.964 14.302,13.532 C14.302,13.04 14.506,12.68 14.914,12.44 C15.274,12.224 15.766,12.128 16.402,12.128 C17.098,12.128 17.638,12.272 18.022,12.584 C18.394,12.884 18.634,13.34 18.742,13.964 L19.714,13.964 C19.63,13.064 19.306,12.38 18.73,11.924 C18.178,11.48 17.41,11.264 16.45,11.264 Z M21.154,11.432 L27.226,11.432 L27.226,12.284 L22.138,12.284 L22.138,15.152 L26.938,15.152 L26.938,16.004 L22.138,16.004 L22.138,19.148 L27.43,19.148 L27.43,20 L21.154,20 L21.154,11.432 Z" id="HSE" fill="#FFFFFF" fill-rule="nonzero"></path>
                            </g>
                        </g>
                    </g>
                </g>
            </g>
        </g>
    </g>
</svg>