<?xml version="1.0" encoding="UTF-8"?>
<svg width="31px" height="31px" viewBox="0 0 31 31" version="1.1" xmlns="http://www.w3.org/2000/svg" xmlns:xlink="http://www.w3.org/1999/xlink">
    <!-- Generator: Sketch 59.1 (86144) - https://sketch.com -->
    <title>编组 11</title>
    <desc>Created with Sketch.</desc>
    <g id="新首页" stroke="none" stroke-width="1" fill="none" fill-rule="evenodd">
        <g id="平台首页底部栏状态" transform="translate(-172.000000, -117.000000)">
            <g id="编组-4" transform="translate(172.000000, 117.000000)">
                <g id="编组-11">
                    <g id="编组-20备份" fill="#0091FF">
                        <g id="编组-19">
                            <g id="编组-8">
                                <circle id="椭圆形" cx="15.5" cy="15.5" r="15.5"></circle>
                            </g>
                        </g>
                    </g>
                    <path d="M15.316,7.222 C13.228,9.526 10.618,11.452 7.468,13 L8.476,14.836 C11.608,13.162 14.11,11.182 16,8.914 C18.052,11.344 20.536,13.306 23.452,14.818 L24.478,12.982 C21.526,11.578 18.934,9.67 16.684,7.222 L15.316,7.222 Z M15.568,12.1 L17.458,12.1 L17.458,15.862 L22.156,15.862 L22.156,17.68 L17.458,17.68 L17.458,21.424 L23.47,21.424 L23.47,23.26 L8.314,23.26 L8.314,21.424 L10.87,21.424 L10.87,14.692 L12.724,14.692 L12.724,21.424 L15.568,21.424 L15.568,12.1 Z" id="企" fill="#FFFFFF" fill-rule="nonzero"></path>
                </g>
            </g>
        </g>
    </g>
</svg>