<?xml version="1.0" encoding="UTF-8"?>
<svg width="21px" height="21px" viewBox="0 0 21 21" version="1.1" xmlns="http://www.w3.org/2000/svg" xmlns:xlink="http://www.w3.org/1999/xlink">
    <!-- Generator: Sketch 59.1 (86144) - https://sketch.com -->
    <title>quanzi-tianchong (1)</title>
    <desc>Created with Sketch.</desc>
    <g id="新首页" stroke="none" stroke-width="1" fill="none" fill-rule="evenodd">
        <g id="平台首页底部栏状态" transform="translate(-284.000000, -344.000000)" fill="#999999">
            <g id="编组-27" transform="translate(282.000000, 344.000000)">
                <g id="quanzi-tianchong-(1)" transform="translate(2.000000, 0.000000)">
                    <path d="M14.7760271,11.1208383 C14.7760271,13.4423654 12.8631098,15.3441702 10.5000763,15.3441702 C8.13692076,15.3441702 6.22400345,13.4547262 6.22400345,11.1208383 C6.22400345,10.3305049 5.0237446,10.256431 4.97368421,11.1208383 C4.97368421,14.134024 7.44926197,16.5789474 10.5000763,16.5789474 C13.550738,16.5789474 16.0263158,14.134024 16.0263158,11.1208383 C16.0138007,10.3182648 14.8259654,10.2811826 14.7760271,11.1208383 Z" id="Fill-2"></path>
                    <path d="M10.4999526,0 C4.71982333,0 0,4.69969791 0,10.5000474 C0.0258873015,13.1929946 1.02156974,15.0185318 1.07324964,15.1479068 C1.20262301,15.3551028 1.25427133,15.588218 1.22838403,15.8341665 L1.12505581,20.1713741 L5.94820736,20.0548323 C6.16809157,20.0290079 6.38797578,20.1066708 6.56899748,20.2360774 C7.82330038,20.7410603 9.1551389,21 10.4999526,21 C14.689623,21 18.4913311,18.0222255 19.6939225,15.4975955 C19.732785,15.4069729 19.7714897,15.3163187 19.7844649,15.2127366 C19.8103522,14.7466325 19.4999572,14.5135173 19.0862023,14.5135173 C18.8017261,14.5135173 18.6336165,14.6170995 18.4396512,14.9408373 C16.8749532,17.724407 13.9008495,19.6016879 10.4999526,19.6016879 C9.33616059,19.6016879 8.17240011,19.3816587 7.08620682,18.941474 C6.93107243,18.8249005 6.75001917,18.7602288 6.55605383,18.7731885 L2.37932714,18.8766442 L2.46983799,15.1091544 C2.49575686,14.9019584 2.45689434,14.6947624 2.34049619,14.5135173 C2.28881629,14.4100615 1.42238094,12.8175131 1.40943729,10.4870878 C1.40943729,5.46362048 5.49562156,1.37239283 10.5128963,1.37239283 C15.530171,1.37239283 19.6163553,5.46362048 19.6163553,10.4870878 C19.6163553,11.1214773 19.5775244,11.5487025 19.4482773,12.1442131 L19.4482773,12.1571727 C19.4094463,12.5585734 19.7198414,12.9210953 20.120621,12.9340549 C20.4826959,12.9470145 20.793091,12.6751469 20.831922,12.3384178 C20.9352817,11.7429388 21,11.1214773 21,10.4870878 C20.9741127,4.72564877 16.267233,0.0129596265 10.4999526,0 Z" id="Fill-3"></path>
                </g>
            </g>
        </g>
    </g>
</svg>