<?xml version="1.0" encoding="UTF-8"?>
<svg width="22px" height="20px" viewBox="0 0 22 20" version="1.1" xmlns="http://www.w3.org/2000/svg" xmlns:xlink="http://www.w3.org/1999/xlink">
    <!-- Generator: Sketch 59.1 (86144) - https://sketch.com -->
    <title>shouye (1)</title>
    <desc>Created with Sketch.</desc>
    <g id="新首页" stroke="none" stroke-width="1" fill="none" fill-rule="evenodd">
        <g id="平台首页底部栏状态" transform="translate(-43.000000, -127.000000)">
            <g id="编组-25" transform="translate(42.000000, 127.000000)">
                <g id="shouye-(1)" transform="translate(1.000000, 0.000000)">
                    <path d="M4.07407407,8.8777281 L4.07407407,19.2 L8.03948023,19.2 L8.03948023,14.9814678 C8.03948023,13.7081794 9.21490878,12.660343 10.6513404,12.660343 C12.0876502,12.660343 13.2632006,13.7081794 13.2632006,14.9814678 L13.2632006,19.1975848 L17.2284849,19.1975848 L17.2284849,8.8777281 L4.07407407,8.8777281 Z M14.8409861,5.1446872 L14.8409861,2.94999023 C14.8409861,2.64530023 15.0824491,2.4 15.3824106,2.4 L17.3845929,2.4 C17.6845544,2.4 17.9259259,2.64530023 17.9259259,2.94999023 L17.9259259,5.80862654 C17.9259259,6.11331655 17.6845544,6.35849292 17.3845929,6.35849292 L16.1945321,6.35849292 L14.8409861,5.1446872 Z" id="Fill-1" fill="#00B36A"></path>
                    <path d="M17.6732152,7.2 L16.5206951,7.2 C16.2207488,7.2 15.9774262,6.9598207 15.9774262,6.66360539 C15.9774262,6.36739008 16.2207488,6.12718162 16.5206951,6.12718162 L17.6567123,6.12718162 L17.6567123,3.47281838 L15.7531159,3.47281838 L15.7531159,5.52072742 C15.7531159,5.81697188 15.5097933,6.05715119 15.209847,6.05715119 C14.9098712,6.05715119 14.6666667,5.81697188 14.6666667,5.52072742 L14.6666667,3.45427577 C14.6666667,2.87344886 15.1460494,2.4 15.7341922,2.4 L17.6732152,2.4 C18.2612399,2.4 18.7407407,2.87344886 18.7407407,3.45427577 L18.7407407,6.14587 C18.7407407,6.72658029 18.2612399,7.2 17.6732152,7.2 Z" id="Fill-2" fill="#232323"></path>
                    <path d="M8.14814815,18.9946385 C6.42680941,17.5586244 5.12890729,15.652408 4.07407407,13.6 L4.07407407,19.2 L8.14814815,19.2 L8.14814815,18.9946385 Z" id="Fill-3" fill="#009957"></path>
                    <path d="M18.1596217,20 L14.0872799,20 C13.7692016,20 13.5111386,19.7506558 13.5111386,19.4431747 L13.5111386,15.3224434 C13.5111386,14.3806008 12.5644799,13.6156205 11.4023357,13.6156205 C10.2401914,13.6156205 9.29353275,14.3806008 9.29353275,15.3224434 L9.29353275,19.4431747 C9.29353275,19.7506558 9.03559502,20 8.7175167,20 L4.65005882,20 C4.33198049,20 4.07407407,19.7506558 4.07407407,19.4431747 L4.07407407,9.35679505 C4.07407407,9.04931393 4.33198049,8.8 4.65005882,8.8 L11.682877,8.8 C12.0009553,8.8 12.2588618,9.04931393 12.2588618,9.35679505 C12.2588618,9.66427618 12.0009553,9.91371116 11.682877,9.91371116 L5.22607487,9.91371116 L5.22607487,18.8911008 L8.148983,18.8911008 L8.148983,15.3224434 C8.148983,13.7681202 9.60904391,12.5042396 11.4073448,12.5042396 C13.205677,12.5042396 14.6658318,13.7681202 14.6658318,15.3224434 L14.6658318,18.8887402 L17.588646,18.8887402 L17.588646,14.1506558 C17.588646,13.8431747 17.8465524,13.5937397 18.1646308,13.5937397 C18.4827091,13.5937397 18.7407407,13.8431747 18.7407407,14.1506558 L18.7407407,19.4455353 C18.7331645,19.7506558 18.4777,20 18.1596217,20 Z" id="Fill-4" fill="#232323"></path>
                    <g id="编组">
                        <path d="M0.839205092,9.19504615 L10.2466167,0.715107692 C10.6598868,0.343353846 11.3319604,0.343353846 11.7452306,0.715107692 L21.1526733,9.19504615 C21.7923847,9.77110769 21.2098982,10.612959 20.1742801,10.612959 L1.81756719,10.612959 C0.781949081,10.6153538 0.201889675,9.77110769 0.839205092,9.19504615 Z" id="Fill-5" fill="#00B36A"></path>
                        <path d="M20.1742801,11.1790462 L17.7048345,11.1790462 C17.3886818,11.1790462 17.1323055,10.9255692 17.1323055,10.6129538 C17.1323055,10.3003077 17.3886818,10.0467077 17.7048345,10.0467077 L20.1742801,10.0467077 C20.5552192,10.0467077 20.7942008,9.87941538 20.839041,9.76126154 C20.8464781,9.74153846 20.8638416,9.69972308 20.764297,9.61101538 L11.58843,1.33781538 C11.3121386,1.08926154 10.6798331,1.08926154 10.4034173,1.33781538 L1.22512306,9.61353846 C1.12800566,9.70212308 1.14294201,9.74393846 1.15037907,9.76366154 C1.19764639,9.88181538 1.43420085,10.0492308 1.81756719,10.0492308 L4.28203395,10.0492308 C4.59821782,10.0492308 4.85456294,10.3027385 4.85456294,10.6153538 C4.85456294,10.9279692 4.59821782,11.1815692 4.28203395,11.1815692 L1.81756719,11.1815692 C1.00596322,11.1815692 0.326359264,10.7851692 0.084950495,10.1747077 C-0.106732673,9.68492308 0.0301527581,9.16307692 0.453380481,8.78156923 L9.63179915,0.505846154 C10.3437341,-0.136584615 11.6431344,-0.136584615 12.3551938,0.505846154 L21.533488,8.78156923 C21.9567157,9.16307692 22.0961528,9.68492308 21.9020424,10.1747077 C21.665488,10.7827692 20.985884,11.1790462 20.1742801,11.1790462 Z" id="Fill-7" fill="#232323"></path>
                    </g>
                </g>
            </g>
        </g>
    </g>
</svg>