<?xml version="1.0" encoding="UTF-8"?>
<svg width="19px" height="21px" viewBox="0 0 19 21" version="1.1" xmlns="http://www.w3.org/2000/svg" xmlns:xlink="http://www.w3.org/1999/xlink">
    <!-- Generator: Sketch 59.1 (86144) - https://sketch.com -->
    <title>filedicon_my_green_备份</title>
    <desc>Created with Sketch.</desc>
    <g id="新首页" stroke="none" stroke-width="1" fill="none" fill-rule="evenodd">
        <g id="平台首页底部栏状态" transform="translate(-300.000000, -127.000000)">
            <g id="编组-5" transform="translate(297.000000, 127.000000)">
                <g id="filedicon_my_green_备份" transform="translate(3.000000, 0.000000)">
                    <path d="M4,4 C4.48873611,4.06506564 4.97766319,4.1956555 5.51551736,4.32599059 C6.44444444,4.58691554 7.47103472,5.10861258 8.54662847,5.82611797 C10.1111111,6.86941015 11.3821076,6.93473055 12.4576632,6.4781501 C13.5821458,6.02177347 14.4621458,4.97822653 15,4.13033509 C14.4131806,7.52164609 12.1643299,10 9.47551736,10 C6.83547917,10 4.53770139,7.39126004 4,4 Z M5,8.925 L5,9.075 L5,8.925 Z" id="Fill-1" fill="#00B36A"></path>
                    <path d="M9.47615327,0 C6.42860863,0 4,2.48693605 4,5.5 C4,5.88268602 4.04765625,6.26525995 4.0953497,6.6000822 C4.61908482,9.13484467 6.85718006,11 9.47615327,11 C12.0953125,11 14.2857515,9.13484467 14.8571429,6.6956603 C14.9524554,6.31312373 15,5.88268602 15,5.5 C15,2.48693605 12.5238467,0 9.47615327,0 Z M9.47615327,9.66089783 C7.66677827,9.66089783 6.14293155,8.51310131 5.57150298,6.88700331 C5.42864583,6.45660297 5.33333333,6.02616526 5.33333333,5.54786378 C5.33333333,3.25215864 7.1905506,1.38700331 9.47615327,1.38700331 C11.761942,1.38700331 13.5714658,3.25215864 13.5714658,5.54786378 C13.5714658,6.6956603 13.0952753,7.74784136 12.3333333,8.51310131 C11.6190848,9.18274581 10.619122,9.66089783 9.47615327,9.66089783 Z" id="Fill-2" fill="#000000"></path>
                    <path d="M17,20 L1,20 L2.52154179,12.6492447 L2.84434438,11 L4.27373919,11 C4.87316282,11.6125998 5.56480548,12.0838388 6.34870317,12.460727 L6.4870317,12.7906054 L8.33137608,16.7958614 L9.53029539,16.7958614 L11.3746398,12.9319661 L11.6051153,12.460727 C12.3429035,12.0838388 13.0806556,11.6125998 13.6339697,11 L15.3399856,11 L15.7089337,13.0261329 L17,20 Z" id="Fill-3" fill="#00B36A"></path>
                    <path d="M5.45424384,10 L5.45424384,10.1 L5.45424384,10 Z M16.9039778,10 L13.5323234,10 L13.3500343,10.1758969 C12.4388379,11.1438969 10.9351752,11.8479312 9.75063418,11.8919656 C8.29257047,11.9798969 6.60676107,11.232 5.60433114,10.1758969 C5.55873217,10.132 5.51313319,10.0438969 5.4676766,10 L2.36926008,10 L1.82249954,12.5078969 L0,21 L19,21 L16.9039778,10 Z M9.79609077,13.2118969 C9.97837988,13.2118969 10.160669,13.168 10.3884503,13.168 L9.47711152,14.9718625 L8.56595074,13.168 C9.02158453,13.2118969 9.43165493,13.2559312 9.79609077,13.2118969 Z M3.05281755,12.8599656 L3.37165441,11.3199313 L4.78408354,11.3199313 C5.37644306,11.8919656 6.05985814,12.332 6.83450677,12.6839313 L6.9711969,12.9919656 L8.79369644,16.732 L9.97837988,16.732 L11.800915,13.1239656 L12.0288031,12.6839313 C12.7576748,12.332 13.4867244,11.8919656 14.0334494,11.3199313 L15.7194368,11.3199313 L16.0838726,13.2118969 L17.4052462,19.7239656 L1.59475384,19.7239656 L3.05281755,12.8599656 Z" id="Fill-4" fill="#000000"></path>
                </g>
            </g>
        </g>
    </g>
</svg>