<?xml version="1.0" encoding="UTF-8"?>
<svg width="18px" height="22px" viewBox="0 0 18 22" version="1.1" xmlns="http://www.w3.org/2000/svg" xmlns:xlink="http://www.w3.org/1999/xlink">
    <!-- Generator: Sketch 59.1 (86144) - https://sketch.com -->
    <title>xiaoxi (5)</title>
    <desc>Created with Sketch.</desc>
    <g id="新首页" stroke="none" stroke-width="1" fill="none" fill-rule="evenodd">
        <g id="平台首页底部栏状态" transform="translate(-116.000000, -127.000000)">
            <g id="xiaoxi-(5)" transform="translate(116.000000, 127.000000)">
                <path d="M8.08940696,21.0833333 C7.26070966,21.0833333 6.70828807,20.5027741 6.70828807,19.6319353 L9.49173789,19.6319353 C9.49173789,20.5027741 8.91800041,21.0833333 8.08940696,21.0833333 Z M8.06809108,3.66666667 C11.5740742,3.66666667 14.4,6.65868289 14.4,10.3206695 L14.4,18.1582459 L1.8,18.1582459 L1.8,10.3206695 C1.8,6.63641875 4.58344982,3.66666667 8.06809108,3.66666667 Z" id="Fill-1" fill="#00B36A"></path>
                <path d="M2.48236698,16.5 C2.90806979,16.5 3.1847363,16.2194569 3.1847363,15.7878845 L3.1847363,10.1344658 C3.1847363,7.30765097 4.99405777,4.91248762 7.5058266,4.07093732 C7.93152941,3.91993446 8.20829996,3.63936496 8.05923765,3.22943976 C7.91030539,2.79789376 7.5058266,2.6684326 7.08012379,2.79789376 C3.88720966,3.79047329 1.80114364,6.74664381 1.80114364,10.1344658 L1.80114364,15.7663692 C1.77989362,16.1979152 2.05656013,16.5 2.48236698,16.5 Z" id="Fill-2" fill="#000000"></path>
                <path d="M17.3011407,17.6703829 L16.6022814,17.6703829 L16.6022814,9.91209706 C16.6022814,6.17582541 14.1035385,3.01095827 10.6517305,2.15389179 C10.1011407,2 9.67762803,1.4285784 9.67762803,0.725313385 C9.67762803,0.285769392 9.40238491,0 8.97876873,0 C8.55525606,0 8.28001294,0.285769392 8.28001294,0.725313385 C8.28001294,2.02203128 9.10581995,3.16486714 10.355269,3.45050226 C13.1294361,4.17581564 15.2046922,6.74722992 15.2046922,9.78023655 L15.2046922,17.6703829 L0.698859299,17.6703829 C0.275346631,17.6703829 0,17.9560449 0,18.3955889 C0,18.8351597 0.275346631,19.1209022 0.698859299,19.1209022 L6.22589757,19.1209022 C6.22589757,20.7032821 7.47534663,22 8.99998706,22 C10.5246534,22 11.7741024,20.7032821 11.7741024,19.1209022 L17.3011407,19.1209022 C17.5764873,19.1209022 18,18.8351597 18,18.3955889 C18,17.9560449 17.7246534,17.6703829 17.3011407,17.6703829 Z M8.99998706,20.5494807 C8.17410243,20.5494807 7.62351267,19.9780761 7.62351267,19.1209022 L10.3764873,19.1209022 C10.3764873,19.9560546 9.82589757,20.5494807 8.99998706,20.5494807 Z" id="Fill-3" fill="#000000"></path>
            </g>
        </g>
    </g>
</svg>